<?xml version="1.0" encoding="utf-8"?>
<!-- Generator: Adobe Illustrator 18.0.0, SVG Export Plug-In . SVG Version: 6.00 Build 0)  -->
<!DOCTYPE svg PUBLIC "-//W3C//DTD SVG 1.1//EN" "http://www.w3.org/Graphics/SVG/1.1/DTD/svg11.dtd">
<svg version="1.1" id="Layer_1" xmlns="http://www.w3.org/2000/svg" xmlns:xlink="http://www.w3.org/1999/xlink" x="0px" y="0px"
	 width="1400px" height="980px" viewBox="0 0 1400 980" enable-background="new 0 0 1400 980" xml:space="preserve">
<g>
	<g>
		<g>
			<path fill="#263238" d="M533.9,662.2v-90.6l-36.3-5.2c-2.5-0.4-4.9,1.1-4.9,3v95c0,1.9,2.4,3.4,4.9,3L533.9,662.2z"/>
			<path fill="#263238" d="M663.9,662.2v-90.6l36.3-5.2c2.5-0.4,4.9,1.1,4.9,3v95c0,1.9-2.4,3.4-4.9,3L663.9,662.2z"/>
			<path fill="#263238" d="M537.9,569.9h122.3l7-36.3c0.5-2.5-1.5-4.9-4.1-4.9H534.9c-2.6,0-4.5,2.4-4.1,4.9L537.9,569.9z"/>
			<path fill="#263238" d="M660.2,665.6H537.9l-7,36.3c-0.5,2.5,1.5,4.9,4.1,4.9h128.3c2.6,0,4.5-2.4,4.1-4.9L660.2,665.6z"/>
			<path fill="#263238" d="M538.1,573.6v88.1H660v-88.1H538.1z M565.6,647.6c-5.3,0-9.5-4.2-9.5-9.5c0-5.3,4.3-9.5,9.5-9.5
				c5.3,0,9.5,4.3,9.5,9.5C575.1,643.3,570.9,647.6,565.6,647.6z M565.6,627.2c-5.3,0-9.5-4.3-9.5-9.5c0-5.3,4.3-9.5,9.5-9.5
				c5.3,0,9.5,4.3,9.5,9.5C575.1,622.9,570.9,627.2,565.6,627.2z M565.6,606.8c-5.3,0-9.5-4.3-9.5-9.5c0-5.3,4.3-9.5,9.5-9.5
				c5.3,0,9.5,4.3,9.5,9.5C575.1,602.5,570.9,606.8,565.6,606.8z M588,647.6c-5.3,0-9.5-4.2-9.5-9.5c0-5.3,4.3-9.5,9.5-9.5
				s9.5,4.3,9.5,9.5C597.6,643.3,593.3,647.6,588,647.6z M588,627.2c-5.3,0-9.5-4.3-9.5-9.5c0-5.3,4.3-9.5,9.5-9.5s9.5,4.3,9.5,9.5
				C597.6,622.9,593.3,627.2,588,627.2z M588,606.8c-5.3,0-9.5-4.3-9.5-9.5c0-5.3,4.3-9.5,9.5-9.5s9.5,4.3,9.5,9.5
				C597.6,602.5,593.3,606.8,588,606.8z M610.2,647.6c-5.3,0-9.5-4.2-9.5-9.5c0-5.3,4.3-9.5,9.5-9.5c5.3,0,9.5,4.3,9.5,9.5
				C619.8,643.3,615.5,647.6,610.2,647.6z M610.2,627.2c-5.3,0-9.5-4.3-9.5-9.5c0-5.3,4.3-9.5,9.5-9.5c5.3,0,9.5,4.3,9.5,9.5
				C619.8,622.9,615.5,627.2,610.2,627.2z M610.2,606.8c-5.3,0-9.5-4.3-9.5-9.5c0-5.3,4.3-9.5,9.5-9.5c5.3,0,9.5,4.3,9.5,9.5
				C619.8,602.5,615.5,606.8,610.2,606.8z M632.5,647.6c-5.3,0-9.5-4.2-9.5-9.5c0-5.3,4.3-9.5,9.5-9.5s9.5,4.3,9.5,9.5
				C642,643.3,637.7,647.6,632.5,647.6z M632.5,627.2c-5.3,0-9.5-4.3-9.5-9.5c0-5.3,4.3-9.5,9.5-9.5s9.5,4.3,9.5,9.5
				C642,622.9,637.7,627.2,632.5,627.2z M632.5,606.8c-5.3,0-9.5-4.3-9.5-9.5c0-5.3,4.3-9.5,9.5-9.5s9.5,4.3,9.5,9.5
				C642,602.5,637.7,606.8,632.5,606.8z"/>
		</g>
		<g>
			<rect x="584.7" y="706.9" fill="#263238" width="28.4" height="10.1"/>
			<rect x="592.3" y="709.9" fill="#263238" width="13.3" height="37.5"/>
		</g>
	</g>
	<g>
		<path fill="#263238" d="M312.3,551.5v-8.1c0-2.8-1.5-5.4-3.9-6.7c-2.3-1.2-5-1.9-7.8-1.9h-38.9c-2.8,0-5.5,0.7-7.8,1.9
			c-2.5,1.3-3.9,3.9-3.9,6.7v8.1h-16.9c0-7.9,3.2-15.1,8.4-20.3c5.2-5.2,12.4-8.4,20.3-8.4h38.9c15.9,0,28.7,12.8,28.7,28.7H312.3z"
			/>
		<path fill="#263238" d="M222.5,570.4v-26.3h115.9v26.3c0,20.7-15.7,37.6-35.1,37.6h-45.7C238.2,608,222.5,591.1,222.5,570.4z"/>
		<path fill="#263238" d="M352.3,544.1h-9.1v26.3c0,23.6-17.9,42.8-39.9,42.8h-45.7c-22,0-39.9-19.2-39.9-42.8v-26.3h-8
			c-7.8,0-14.1,6.4-13.9,14.2l2.1,113.4c0.9,45.3,37.8,81.5,83.1,81.5c23.9,0,45.4-10.1,60.6-26.2c13.6-14.5,22.1-33.9,22.5-55.3
			l1-51.9l1.2-61.5C366.4,550.5,360.1,544.1,352.3,544.1z M337.2,646.5c-0.8,0.8-1.9,1.3-3.1,1.3H228c-2.4,0-4.4-2-4.4-4.4
			c0-1.2,0.5-2.3,1.3-3.1c0.8-0.8,1.9-1.3,3.1-1.3h106c2.4,0,4.4,2,4.4,4.4C338.4,644.6,337.9,645.7,337.2,646.5z"/>
		<path fill="#263238" d="M389.4,673.8c0,50.5-30,54.3-44.4,53.2c13.6-14.5,22.1-33.9,22.5-55.3l1-51.9
			C374.9,618.8,389.4,622,389.4,673.8z"/>
		<path fill="#263238" d="M172.6,673.8c0,50.5,30,54.3,44.4,53.2c-13.6-14.5-22.1-33.9-22.5-55.3l-1-51.9
			C187.2,618.8,172.6,622,172.6,673.8z"/>
	</g>
	<g>
		<g>
			<path fill="#263238" d="M920.3,566.8v27.4c-2.8-2.2-6.6-3.2-10.4-2.5c-4.5,0.9-7.9,4.1-9.4,8.1h-11.7c-0.5-2.4-1.8-4.5-3.4-6.1
				c-2.3-2.3-5.5-3.7-9-3.7c-6,0-11.1,4.2-12.4,9.9h-11.7c-1.5-4-4.9-7.2-9.4-8.1c-3.3-0.7-6.4,0-9.1,1.6v-26.5h16.5v-32.5h-12.1
				V509h77.7v25.3h-12.1v8.3h-1.2v10.2h1.2v14.1H920.3z"/>
			<rect x="902.5" y="542.5" fill="#263238" width="1.2" height="10.2"/>
			<path fill="#263238" d="M933.9,536.2V559h-13.1v-6.3c0,0-12.8,0-17,0h-1.2v-10.2h1.2c4.2,0,17,0,17,0v-6.3H933.9z"/>
		</g>
		<g>
			<path fill="#263238" d="M886.4,602.7v133.2h-20.1V602.7c0-1,0.1-1.9,0.4-2.8c1.2-4.1,5.1-7.2,9.6-7.2c4.5,0,8.4,3,9.6,7.2
				C886.3,600.8,886.4,601.7,886.4,602.7z"/>
		</g>
		<g>
			<polygon fill="#263238" points="894.3,736.7 894.3,751.6 885.8,751.6 882.1,767.1 870.7,767.1 867,751.6 858.4,751.6 
				858.4,736.7 			"/>
		</g>
		<g>
			<g>
				<path fill="#263238" d="M850.1,606.2l-26.6,130.5l-19.7-4l26.6-130.5c0.4-2.2,1.6-4.2,3.3-5.6c1.8-1.5,4.1-2.4,6.5-2.4
					c0.7,0,1.3,0.1,2,0.2c3.2,0.6,5.7,2.7,7,5.5C850.3,601.8,850.6,604,850.1,606.2z"/>
			</g>
			<g>
				<polygon fill="#263238" points="831.1,739.1 828.2,753.7 819.8,752 813,766.4 808.3,765.5 806.6,765.1 801.9,764.1 801.3,748.2 
					792.9,746.5 795.9,731.9 798.4,732.4 801.1,733 812.7,735.3 814.4,735.7 826,738 828.6,738.6 				"/>
			</g>
			<g>
				<path fill="#263238" d="M948.9,732.7l-19.7,4l-26.6-130.5c-0.4-2.2-0.1-4.5,0.8-6.4c1.3-2.7,3.8-4.8,7-5.5
					c0.7-0.1,1.3-0.2,2-0.2c3.1,0,6,1.5,7.8,3.8c1,1.2,1.7,2.6,2,4.2L948.9,732.7z"/>
			</g>
			<g>
				<polygon fill="#263238" points="959.8,746.5 951.4,748.2 950.9,764.1 946.1,765.1 944.4,765.5 939.7,766.4 932.9,752 
					924.6,753.7 921.6,739.1 924.1,738.6 926.7,738 938.3,735.7 940.1,735.3 951.7,733 954.3,732.4 956.8,731.9 				"/>
			</g>
		</g>
	</g>
	<g>
		<g>
			<path fill="#263238" d="M1243.7,603.5c-0.6,0.3-8.3,3.2-24,6.3c-1.3,0.3-2.7,0.5-4.1,0.8l-0.4-3.2l-42.9,6l0.3,2.4
				c-1.4,0.1-2.8,0.2-4.2,0.3c-4.2,0.3-8.5,0.5-13,0.7c-1.4,0.1-2.8,0.1-4.2,0.2v-1.7h-43.3v1.9c-1.4,0-2.8-0.1-4.2-0.1
				c-4.6-0.2-8.9-0.4-13.1-0.6c-1.4-0.1-2.8-0.2-4.2-0.3l0.4-2.7l-42.9-6l-0.5,3.5c-1.4-0.3-2.8-0.5-4.1-0.8
				c-16.1-3.3-23.4-6.4-24-6.7l2.8-6.2c0.1,0.1,6.9,3,22.2,6.1c11.8,2.4,28.6,4.9,51.4,6.2c3.9,0.2,7.9,0.4,12.1,0.6
				c7.4,0.3,15.3,0.4,23.8,0.4c10,0,19.3-0.2,27.9-0.6c4.2-0.2,8.2-0.4,12.1-0.6c22.4-1.5,39.3-4,51.3-6.4c15.1-3,22.4-5.7,22.5-5.8
				L1243.7,603.5z"/>
		</g>
		<path fill="#263238" d="M1103.6,609v69.9h51.7V609H1103.6z M1151.1,656.5l-12.1-12.6l-11.3,10l-8.3-7.7l-11.6,11.7v-42.8h43.3
			V656.5z"/>
		<path fill="#263238" d="M1219.7,609.8l-1-6.8l-0.3-2.3l-51.2,7.2l0.2,1.5l0.9,6.8l8.5,60.9l51.2-7.2L1219.7,609.8z M1197.4,649
			l-9.3-6.4l-9.9,13.2l-5.6-39.9l-0.3-2.4l42.9-6l0.4,3.2l5.3,37.7l-13.7-10.8L1197.4,649z"/>
		<path fill="#263238" d="M1040.5,600.6l-0.4,2.7l-1,6.8l-8.4,59.7l51.2,7.2l8.5-60.7l1-6.8l0.2-1.8L1040.5,600.6z M1080.7,655.8
			l-9.9-13.2l-9.3,6.4l-9.8-11.5l-13.7,10.8l5.2-37.3l0.5-3.5l42.9,6l-0.4,2.7L1080.7,655.8z"/>
	</g>
	<g>
		<path fill="#263238" d="M1191.3,212.9h-123.8c-9,0-16.3,7.3-16.3,16.3v68.6c0,9,7.3,16.3,16.3,16.3h123.8c9,0,16.3-7.3,16.3-16.3
			v-68.6C1207.6,220.2,1200.3,212.9,1191.3,212.9z M1190.9,298.2H1068v-69.2h122.9V298.2z"/>
		<path fill="#263238" d="M1088.2,321l6.9,18.2c0.4,1.2,1.5,1.9,2.8,1.9h63.3c1.2,0,2.3-0.8,2.8-1.9l6.9-18.2c0.7-1.9-0.7-4-2.8-4
			h-77C1088.9,317,1087.5,319,1088.2,321z"/>
		<path fill="#263238" d="M1175.7,352.2v69.8c0,8.1-6.6,14.7-14.7,14.7h-4.1v-48.1c0-5.1-4.1-9.2-9.2-9.2h-36.6
			c-5.1,0-9.2,4.1-9.2,9.2v48.1h-4.1c-8.1,0-14.7-6.6-14.7-14.7v-69.8c0-4.5,3.6-8,8.1-8h76.4
			C1172.1,344.2,1175.7,347.8,1175.7,352.2z"/>
		<path fill="#263238" d="M1154.3,392.1v46.7c0,5.1-4.1,9.2-9.2,9.2h-31.3c-5.1,0-9.2-4.1-9.2-9.2v-46.7c0-5.1,4.1-9.2,9.2-9.2h31.3
			C1150.2,382.9,1154.3,387,1154.3,392.1z"/>
		<path fill="#263238" d="M1154.3,392.1v46.7c0,5.1-4.1,9.2-9.2,9.2h-31.3c-5.1,0-9.2-4.1-9.2-9.2v-46.7c0-5.1,4.1-9.2,9.2-9.2h31.3
			C1150.2,382.9,1154.3,387,1154.3,392.1z"/>
	</g>
	<g>
		<path fill="#263238" d="M924,312.1v79.9c0,2.1-1.7,3.8-3.8,3.8h-74c-2.1,0-3.8-1.7-3.8-3.8v-79.9c0-2.1,1.7-3.8,3.8-3.8h74
			C922.3,308.3,924,310,924,312.1z"/>
		<path fill="#263238" d="M878.9,226.7l-43.8,0.6l-37,37v46.6h11.4v24h-11.4v99.3h156.3V226.7H878.9z M931.8,400.3
			c0,2.1-1.7,3.8-3.8,3.8h-89.6c-2.1,0-3.8-1.7-3.8-3.8v-96.6c0-2.1,1.7-3.8,3.8-3.8H928c2.1,0,3.8,1.7,3.8,3.8V400.3z"/>
		<rect x="928.5" y="236.2" fill="#FEF2E2" width="16.8" height="31.5"/>
		<rect x="899.5" y="236.2" fill="#FEF2E2" width="16.8" height="31.5"/>
		<rect x="870.6" y="236.2" fill="#FEF2E2" width="16.8" height="31.5"/>
		<rect x="841.6" y="236.2" fill="#FEF2E2" width="16.8" height="31.5"/>
	</g>
	<g>
		<path fill="#263238" d="M334.6,247.3l-107-0.2l6.8-11c3.5-5.7,9.7-9.1,16.4-9.1l60.5,0.1c6.7,0,12.9,3.5,16.4,9.2L334.6,247.3
			L334.6,247.3z"/>
		<g>
			<rect x="184.3" y="267.4" fill="#263238" width="23.5" height="3.3"/>
			<path fill="#263238" d="M281,295.2c-30.6,0-55.5,24.8-55.5,55.5s24.8,55.5,55.5,55.5c30.6,0,55.5-24.8,55.5-55.5
				S311.7,295.2,281,295.2z M248.9,371.6c0,4.3-5.8,6-7.9,2.2c-4-6.8-6.2-14.8-6.2-23.2c0-8,2-15.6,5.6-22.2
				c0.8-1.4,2.2-2.3,3.8-2.3c3.2,0,5.3,3.4,3.8,6.3c-3,5.4-4.7,11.6-4.7,18.2c0,6.9,1.9,13.3,5.1,18.9
				C248.6,370.1,248.9,370.9,248.9,371.6L248.9,371.6z M272.8,313.7c-4.6,1-8.9,2.9-12.7,5.5c-0.7,0.5-1.5,0.8-2.4,0.8h0
				c-4.2,0-5.9-5.5-2.4-7.8c4.7-3.2,10-5.5,15.7-6.7c0.3-0.1,0.6-0.1,0.9-0.1c2.3,0,4.3,1.9,4.3,4.3
				C276.2,311.5,274.8,313.3,272.8,313.7z"/>
			<path fill="#263238" d="M281,270.7c-44.1,0-79.9,35.8-79.9,79.9c0,44.1,35.8,79.9,79.9,79.9c44.1,0,79.9-35.8,79.9-79.9
				C360.9,306.5,325.2,270.7,281,270.7z M281,419.2c-37.9,0-68.5-30.7-68.5-68.5c0-37.9,30.7-68.5,68.5-68.5
				c37.8,0,68.5,30.7,68.5,68.5C349.6,388.5,318.9,419.2,281,419.2z"/>
			<path fill="#263238" d="M246.1,433.9h-77.3c-6.9,0-12.5-5.6-12.5-12.5V279.9c0-6.9,5.6-12.5,12.5-12.5h15.6v3.3h23.5v-3.3H246
				c-32.5,13.7-55.3,45.8-55.3,83.2S213.6,420.2,246.1,433.9z"/>
			<path fill="#263238" d="M405.8,279.9v141.5c0,6.9-5.6,12.5-12.5,12.5H316c32.5-13.7,55.3-45.8,55.3-83.2
				c0-37.4-22.8-69.5-55.2-83.2c0,0-0.1,0-0.1,0c-10.8-4.5-22.6-7-35-7c-12.4,0-24.1,2.5-34.9,7l-31.1,0l7.3-11.7l117.4,0.2
				l7.2,11.7h46.3C400.2,267.4,405.8,273,405.8,279.9z"/>
			<path fill="#263238" d="M207.8,261.7v9h-23.5v-9c0-3.3,2.7-6.1,6.1-6.1h11.4C205.1,255.6,207.8,258.4,207.8,261.7z"/>
			<path fill="#FEF2E2" d="M281,295.2c-30.6,0-55.5,24.8-55.5,55.5s24.8,55.5,55.5,55.5c30.6,0,55.5-24.8,55.5-55.5
				S311.7,295.2,281,295.2z M248.9,371.6c0,4.3-5.8,6-7.9,2.2c-4-6.8-6.2-14.8-6.2-23.2c0-8,2-15.6,5.6-22.2
				c0.8-1.4,2.2-2.3,3.8-2.3c3.2,0,5.3,3.4,3.8,6.3c-3,5.4-4.7,11.6-4.7,18.2c0,6.9,1.9,13.3,5.1,18.9
				C248.6,370.1,248.9,370.9,248.9,371.6L248.9,371.6z M272.8,313.7c-4.6,1-8.9,2.9-12.7,5.5c-0.7,0.5-1.5,0.8-2.4,0.8h0
				c-4.2,0-5.9-5.5-2.4-7.8c4.7-3.2,10-5.5,15.7-6.7c0.3-0.1,0.6-0.1,0.9-0.1c2.3,0,4.3,1.9,4.3,4.3
				C276.2,311.5,274.8,313.3,272.8,313.7z"/>
			<path fill="#FEF2E2" d="M281,270.7c-44.1,0-79.9,35.8-79.9,79.9c0,44.1,35.8,79.9,79.9,79.9c44.1,0,79.9-35.8,79.9-79.9
				C360.9,306.5,325.2,270.7,281,270.7z M281,419.2c-37.9,0-68.5-30.7-68.5-68.5c0-37.9,30.7-68.5,68.5-68.5
				c37.8,0,68.5,30.7,68.5,68.5C349.6,388.5,318.9,419.2,281,419.2z"/>
			<path fill="#263238" d="M281,295.2c-30.6,0-55.5,24.8-55.5,55.5s24.8,55.5,55.5,55.5c30.6,0,55.5-24.8,55.5-55.5
				S311.7,295.2,281,295.2z M248.9,371.6c0,4.3-5.8,6-7.9,2.2c-4-6.8-6.2-14.8-6.2-23.2c0-8,2-15.6,5.6-22.2
				c0.8-1.4,2.2-2.3,3.8-2.3c3.2,0,5.3,3.4,3.8,6.3c-3,5.4-4.7,11.6-4.7,18.2c0,6.9,1.9,13.3,5.1,18.9
				C248.6,370.1,248.9,370.9,248.9,371.6L248.9,371.6z M272.8,313.7c-4.6,1-8.9,2.9-12.7,5.5c-0.7,0.5-1.5,0.8-2.4,0.8h0
				c-4.2,0-5.9-5.5-2.4-7.8c4.7-3.2,10-5.5,15.7-6.7c0.3-0.1,0.6-0.1,0.9-0.1c2.3,0,4.3,1.9,4.3,4.3
				C276.2,311.5,274.8,313.3,272.8,313.7z"/>
			<path fill="#263238" d="M281,270.7c-44.1,0-79.9,35.8-79.9,79.9c0,44.1,35.8,79.9,79.9,79.9c44.1,0,79.9-35.8,79.9-79.9
				C360.9,306.5,325.2,270.7,281,270.7z M281,419.2c-37.9,0-68.5-30.7-68.5-68.5c0-37.9,30.7-68.5,68.5-68.5
				c37.8,0,68.5,30.7,68.5,68.5C349.6,388.5,318.9,419.2,281,419.2z"/>
			<path fill="#FEF2E2" d="M281,295.2c-30.6,0-55.5,24.8-55.5,55.5s24.8,55.5,55.5,55.5c30.6,0,55.5-24.8,55.5-55.5
				S311.7,295.2,281,295.2z M248.9,371.6c0,4.3-5.8,6-7.9,2.2c-4-6.8-6.2-14.8-6.2-23.2c0-8,2-15.6,5.6-22.2
				c0.8-1.4,2.2-2.3,3.8-2.3c3.2,0,5.3,3.4,3.8,6.3c-3,5.4-4.7,11.6-4.7,18.2c0,6.9,1.9,13.3,5.1,18.9
				C248.6,370.1,248.9,370.9,248.9,371.6L248.9,371.6z M272.8,313.7c-4.6,1-8.9,2.9-12.7,5.5c-0.7,0.5-1.5,0.8-2.4,0.8h0
				c-4.2,0-5.9-5.5-2.4-7.8c4.7-3.2,10-5.5,15.7-6.7c0.3-0.1,0.6-0.1,0.9-0.1c2.3,0,4.3,1.9,4.3,4.3
				C276.2,311.5,274.8,313.3,272.8,313.7z"/>
			<path fill="#263238" d="M281,295.2c-30.6,0-55.5,24.8-55.5,55.5s24.8,55.5,55.5,55.5c30.6,0,55.5-24.8,55.5-55.5
				S311.7,295.2,281,295.2z M248.9,371.6c0,4.3-5.8,6-7.9,2.2c-4-6.8-6.2-14.8-6.2-23.2c0-8,2-15.6,5.6-22.2
				c0.8-1.4,2.2-2.3,3.8-2.3c3.2,0,5.3,3.4,3.8,6.3c-3,5.4-4.7,11.6-4.7,18.2c0,6.9,1.9,13.3,5.1,18.9
				C248.6,370.1,248.9,370.9,248.9,371.6L248.9,371.6z M272.8,313.7c-4.6,1-8.9,2.9-12.7,5.5c-0.7,0.5-1.5,0.8-2.4,0.8h0
				c-4.2,0-5.9-5.5-2.4-7.8c4.7-3.2,10-5.5,15.7-6.7c0.3-0.1,0.6-0.1,0.9-0.1c2.3,0,4.3,1.9,4.3,4.3
				C276.2,311.5,274.8,313.3,272.8,313.7z"/>
		</g>
	</g>
	<g>
		<g>
			<path fill="#263238" d="M619.2,275.9H700c4.4,0,7.5,4.2,6.3,8.4l-13.4,46.4c-0.3,0.9-0.8,1.8-1.4,2.6l-17.1,19.2
				c-1.8,2-2.8,4.6-2.8,7.3v37.8c0,4.4-3.5,7.9-7.9,7.9h-44.5V275.9z"/>
			<rect x="632.4" y="285.3" fill="#FEF2E2" width="17.5" height="17.5"/>
			<rect x="632.4" y="378.6" fill="#FEF2E2" width="17.5" height="17.5"/>
			<rect x="671.6" y="285.3" fill="#FEF2E2" width="17.5" height="17.5"/>
		</g>
		<g>
			<path fill="#263238" d="M591.9,244.6H518V237c0-4.2,3.4-7.6,7.6-7.6h58.7c4.2,0,7.6,3.4,7.6,7.6V244.6z"/>
			<g>
				<path fill="#263238" d="M553.2,249.5h-57.7c-2.4,0-4.3,1.9-4.3,4.3v7.3c0,2.4,1.9,4.3,4.3,4.3l0,0c2.4,0,4.3,1.9,4.3,4.3v67.5
					v6.8v67.5c0,2.4-1.9,4.3-4.3,4.3l0,0c-2.4,0-4.3,1.9-4.3,4.3v7.3c0,2.4,1.9,4.3,4.3,4.3h57.7h3.4h57.7c2.4,0,4.3-1.9,4.3-4.3
					V420c0-2.4-1.9-4.3-4.3-4.3l0,0c-2.4,0-4.3-1.9-4.3-4.3v-67.5v-6.8v-67.5c0-2.4,1.9-4.3,4.3-4.3l0,0c2.4,0,4.3-1.9,4.3-4.3v-7.3
					c0-2.4-1.9-4.3-4.3-4.3H553.2z"/>
				<rect x="589" y="269.8" fill="#FEF2E2" width="10" height="141.5"/>
			</g>
		</g>
	</g>
</g>
</svg>
