<?xml version="1.0" encoding="utf-8"?>
<!-- Generator: Adobe Illustrator 19.0.0, SVG Export Plug-In . SVG Version: 6.00 Build 0)  -->
<svg version="1.1" id="Layer_1" xmlns="http://www.w3.org/2000/svg" xmlns:xlink="http://www.w3.org/1999/xlink" x="0px" y="0px"
	 width="1400px" height="980px" viewBox="0 0 1400 980" enable-background="new 0 0 1400 980" xml:space="preserve">
<g>
	<g>
		<path d="M285.7,306.3c-29,0-52.6,23.5-52.6,52.6c0,29,23.5,52.6,52.6,52.6c29,0,52.6-23.5,52.6-52.6
			C338.3,329.9,314.7,306.3,285.7,306.3z"/>
		<path d="M394.5,267.5h-52.3l-5.3-15.2c-1.9-5.4-7-9-12.7-9h-79c-5.7,0-10.8,3.6-12.7,9l-5.3,15.2H213v-4.3c0-3.2-2.6-5.7-5.7-5.7
			h-22.6c-3.2,0-5.7,2.6-5.7,5.7v4.3h-4.1c-9.8,0-17.9,8-17.9,17.9v146.1c0,9.8,8,17.9,17.9,17.9h219.6c9.8,0,17.9-8,17.9-17.9
			V285.4C412.4,275.5,404.3,267.5,394.5,267.5z M286.2,426.5c-37.6,0-68.1-30.5-68.1-68.1c0-37.6,30.5-68.1,68.1-68.1
			c37.6,0,68.1,30.5,68.1,68.1C354.3,396,323.8,426.5,286.2,426.5z M377.8,307.2c-5.6,0-10.1-4.5-10.1-10.1
			c0-5.6,4.5-10.1,10.1-10.1c5.6,0,10.1,4.5,10.1,10.1C387.9,302.6,383.4,307.2,377.8,307.2z"/>
	</g>
	<g>
		<g>
			<path d="M979,338.1h25.1v-18.3H979c0.3,3,0.4,6.1,0.4,9.2C979.5,332.1,979.3,335.1,979,338.1z"/>
			<path d="M892.9,233.8v-25.1h-18.3v25.1c3-0.3,6.1-0.4,9.2-0.4C886.9,233.3,889.9,233.5,892.9,233.8z"/>
			<path d="M831.6,220.2l-15.8,9.2l12.5,21.7c5-3.5,10.3-6.6,15.8-9.2L831.6,220.2z"/>
			<path d="M784.2,260.9l-9.2,15.8l21.7,12.5c2.6-5.6,5.6-10.9,9.2-15.8L784.2,260.9z"/>
			<path d="M788.6,319.8h-25.1v18.3h25.1c-0.3-3-0.4-6.1-0.4-9.2C788.1,325.9,788.3,322.9,788.6,319.8z"/>
			<path d="M775,381.2l9.2,15.8l21.7-12.5c-3.5-5-6.6-10.3-9.2-15.8L775,381.2z"/>
			<path d="M815.7,428.6l15.8,9.2l12.5-21.7c-5.6-2.6-10.9-5.6-15.8-9.2L815.7,428.6z"/>
			<path d="M874.6,424.2v25.1h18.3v-25.1c-3,0.3-6.1,0.4-9.2,0.4C880.7,424.7,877.7,424.5,874.6,424.2z"/>
			<path d="M936,437.8l15.8-9.2l-12.5-21.7c-5,3.5-10.3,6.6-15.8,9.2L936,437.8z"/>
			<path d="M983.4,397.1l9.2-15.8l-21.7-12.5c-2.6,5.6-5.6,10.9-9.2,15.8L983.4,397.1z"/>
			<path d="M992.6,276.8l-9.2-15.8l-21.7,12.5c3.5,5,6.6,10.3,9.2,15.8L992.6,276.8z"/>
			<path d="M951.9,229.4l-15.8-9.2l-12.5,21.7c5.6,2.6,10.9,5.6,15.8,9.2L951.9,229.4z"/>
		</g>
		<path d="M883.8,244.5c-46.6,0-84.4,37.8-84.4,84.4c0,46.6,37.8,84.4,84.4,84.4c46.6,0,84.4-37.8,84.4-84.4
			C968.2,282.4,930.4,244.5,883.8,244.5z M883.8,400.7c-39.6,0-71.7-32.1-71.7-71.7s32.1-71.7,71.7-71.7V400.7z"/>
	</g>
	<g>
		<g>
			<path d="M595.5,449.3c-58.1,0-105.4-47.3-105.4-105.4c0-24.4,8.5-48.2,24-66.9l16.5,13.6c-12.3,15-19.1,33.9-19.1,53.3
				c0,46.3,37.7,84,84,84s84-37.7,84-84c0-37.1-23.8-69.4-59.3-80.3l6.3-20.4c21.1,6.5,40,19.8,53.3,37.6c13.8,18.3,21,40.2,21,63.2
				C700.9,402,653.6,449.3,595.5,449.3z"/>
		</g>
		<g>
			<circle cx="595.5" cy="249.1" r="17.3"/>
		</g>
		<g>
			<polygon points="586.9,352.3 534.3,261.1 604.2,339.8 			"/>
		</g>
	</g>
	<g>
		<path d="M1237.9,268.6h-42.6v-4.6c0-10.5-8.6-19.1-19.1-19.1h-43.3c-10.5,0-19.1,8.6-19.1,19.1v4.6h-42.6c-2.8,0-5.1,2.3-5.1,5.1
			v13.6c0,2.8,2.3,5.1,5.1,5.1h166.6c2.8,0,5.1-2.3,5.1-5.1v-13.6C1243,270.8,1240.7,268.6,1237.9,268.6z M1127,263.9
			c0-3.3,2.7-5.9,5.9-5.9h43.3c3.3,0,5.9,2.7,5.9,5.9v4.6H1127V263.9z"/>
		<path d="M1076,301.3l13.2,138.9c0.4,5.1,4.7,9.1,9.8,9.1h111c5.1,0,9.4-3.9,9.8-9.1l13.2-138.9H1076z M1123.9,426.1
			c-0.1,0-0.2,0-0.3,0c-2.5,0-4.5-1.9-4.7-4.4l-6.6-96.9c-0.2-2.6,1.8-4.8,4.4-5c2.6-0.2,4.8,1.8,5,4.4l6.6,96.9
			C1128.4,423.7,1126.4,425.9,1123.9,426.1z M1159.3,421.4c0,2.6-2.1,4.7-4.7,4.7s-4.7-2.1-4.7-4.7v-96.9c0-2.6,2.1-4.7,4.7-4.7
			s4.7,2.1,4.7,4.7V421.4z M1190.3,421.7c-0.2,2.5-2.2,4.4-4.7,4.4c-0.1,0-0.2,0-0.3,0c-2.6-0.2-4.5-2.4-4.4-5l6.6-96.9
			c0.2-2.6,2.4-4.6,5-4.4c2.6,0.2,4.5,2.4,4.4,5L1190.3,421.7z"/>
	</g>
</g>
<g>
	<path d="M398.6,564.3H173.8c-5.8,0-10.6,4.7-10.6,10.6v179c0,5.8,4.7,10.6,10.6,10.6h224.9c5.8,0,10.6-4.7,10.6-10.6v-179
		C409.2,569,404.5,564.3,398.6,564.3z M388.1,585.4v89.4l-33.7-33.6l-36.1,33.1l-43.6-45.8l-90.2,55.1v-98.2H388.1z"/>
	<circle cx="221" cy="617.5" r="18.6"/>
</g>
<g>
	<polygon points="705.7,616.3 705.7,751.2 705.7,751.2 520.8,751.2 520.8,764.4 718.9,764.4 718.9,616.3 	"/>
	<polygon points="680.9,591.5 680.9,726.4 680.9,726.4 495.9,726.4 495.9,739.6 694,739.6 694,591.5 	"/>
	<rect x="472.1" y="567.7" width="198.1" height="148.1"/>
</g>
<path d="M975.9,663.3v-15.6c0-2.3-1-4.5-2.7-6l-18.5-16.5v-68c0-4.4-3.6-7.9-7.9-7.9H799.6c-4.4,0-7.9,3.6-7.9,7.9v194.7
	c0,6.9,5.6,12.5,12.5,12.5h159.1c6.9,0,12.5-5.6,12.5-12.5v-61.3c0-5-3-9.6-7.6-11.6l-6.3-2.8v-12.9H975.9z M859.8,590.5l10.3-19.2
	c1.2-2.3,4.5-2.4,5.8-0.1l11.1,19.2c1.3,2.2-0.3,5-2.9,5h-21.4C860.2,595.4,858.6,592.8,859.8,590.5z M933.7,736.7
	c0,3.1-2.5,5.6-5.6,5.6H822.5c-3.1,0-5.6-2.5-5.6-5.6V670c0-3.1,2.5-5.6,5.6-5.6H928c3.1,0,5.6,2.5,5.6,5.6V736.7z"/>
<path d="M1234.1,753.8L1176.1,607c-1.6-4-4.9-6.7-8.7-7.7v-20.6c0-1-0.1-2-0.3-2.9h23.3c4.5,0,8.1-3.6,8.1-8.1v-17.2
	c0-4.5-3.6-8.1-8.1-8.1h-73c-4.5,0-8.1,3.6-8.1,8.1v17.2c0,4.5,3.6,8.1,8.1,8.1h24.8c-0.2,0.9-0.3,1.9-0.3,2.9v20.5
	c-4.2,0.8-7.8,3.7-9.5,7.9L1075,753.8c-2.6,6.6,0.7,14.1,7.3,16.6c1.5,0.6,3.1,0.9,4.7,0.9c5.1,0,10-3.1,12-8.2l42.8-109.6V742
	c0,7.1,5.7,12.8,12.8,12.8c7.1,0,12.8-5.7,12.8-12.8v-87.1l42.8,108.3c2,5,6.8,8.1,11.9,8.1c1.6,0,3.2-0.3,4.7-0.9
	C1233.4,767.8,1236.7,760.4,1234.1,753.8z"/>
</svg>
